{"asset":{"version":"2.0","generator":"Blockbench 4.11.1 glTF exporter"},"scenes":[{"nodes":[23],"name":"blockbench_export"}],"scene":0,"nodes":[{"translation":[0,-1.5,0],"name":"Head","mesh":0},{"translation":[0,-1.5,0],"name":"Hat Layer","mesh":1},{"translation":[0,1.5,0],"name":"Head","children":[0,1]},{"translation":[0,-1.5,0],"name":"Body","mesh":2},{"translation":[0,-1.5,0],"name":"Body Layer","mesh":3},{"translation":[0,1.5,0],"name":"Body","children":[3,4]},{"name":"handle","mesh":4},{"name":"root_item","mesh":5},{"name":"blade","mesh":6},{"rotation":[-0.7071067811865475,0,0,0.7071067811865476],"translation":[0.0625,-0.5,0],"name":"iron_sword","children":[6,7,8]},{"translation":[-0.3125,-1.375,0],"name":"Right Arm","mesh":7},{"translation":[-0.3125,-1.375,0],"name":"Right Arm Layer","mesh":8},{"translation":[0.3125,1.375,0],"name":"RightArm","children":[9,10,11]},{"translation":[0.3125,-1.375,0],"name":"Left Arm","mesh":9},{"translation":[0.3125,-1.375,0],"name":"Left Arm Layer","mesh":10},{"translation":[-0.3125,1.375,0],"name":"LeftArm","children":[13,14]},{"translation":[-0.11875,-0.75,0],"name":"Right Leg","mesh":11},{"translation":[-0.11875,-0.75,0],"name":"Right Leg Layer","mesh":12},{"translation":[0.11875,0.75,0],"name":"RightLeg","children":[16,17]},{"translation":[0.11875,-0.75,0],"name":"Left Leg","mesh":13},{"translation":[0.11875,-0.75,0],"name":"Left Leg Layer","mesh":14},{"translation":[-0.11875,0.75,0],"name":"LeftLeg","children":[19,20]},{"name":"Character","children":[2,5,12,15,18,21]},{"children":[22]}],"bufferViews":[{"buffer":0,"byteOffset":0,"byteLength":288,"target":34962,"byteStride":12},{"buffer":0,"byteOffset":288,"byteLength":288,"target":34962,"byteStride":12},{"buffer":0,"byteOffset":576,"byteLength":192,"target":34962,"byteStride":8},{"buffer":0,"byteOffset":768,"byteLength":72,"target":34963},{"buffer":0,"byteOffset":840,"byteLength":288,"target":34962,"byteStride":12},{"buffer":0,"byteOffset":1128,"byteLength":288,"target":34962,"byteStride":12},{"buffer":0,"byteOffset":1416,"byteLength":192,"target":34962,"byteStride":8},{"buffer":0,"byteOffset":1608,"byteLength":72,"target":34963},{"buffer":0,"byteOffset":1680,"byteLength":288,"target":34962,"byteStride":12},{"buffer":0,"byteOffset":1968,"byteLength":288,"target":34962,"byteStride":12},{"buffer":0,"byteOffset":2256,"byteLength":192,"target":34962,"byteStride":8},{"buffer":0,"byteOffset":2448,"byteLength":72,"target":34963},{"buffer":0,"byteOffset":2520,"byteLength":288,"target":34962,"byteStride":12},{"buffer":0,"byteOffset":2808,"byteLength":288,"target":34962,"byteStride":12},{"buffer":0,"byteOffset":3096,"byteLength":192,"target":34962,"byteStride":8},{"buffer":0,"byteOffset":3288,"byteLength":72,"target":34963},{"buffer":0,"byteOffset":3360,"byteLength":288,"target":34962,"byteStride":12},{"buffer":0,"byteOffset":3648,"byteLength":288,"target":34962,"byteStride":12},{"buffer":0,"byteOffset":3936,"byteLength":192,"target":34962,"byteStride":8},{"buffer":0,"byteOffset":4128,"byteLength":72,"target":34963},{"buffer":0,"byteOffset":4200,"byteLength":288,"target":34962,"byteStride":12},{"buffer":0,"byteOffset":4488,"byteLength":288,"target":34962,"byteStride":12},{"buffer":0,"byteOffset":4776,"byteLength":192,"target":34962,"byteStride":8},{"buffer":0,"byteOffset":4968,"byteLength":72,"target":34963},{"buffer":0,"byteOffset":5040,"byteLength":288,"target":34962,"byteStride":12},{"buffer":0,"byteOffset":5328,"byteLength":288,"target":34962,"byteStride":12},{"buffer":0,"byteOffset":5616,"byteLength":192,"target":34962,"byteStride":8},{"buffer":0,"byteOffset":5808,"byteLength":72,"target":34963},{"buffer":0,"byteOffset":5880,"byteLength":288,"target":34962,"byteStride":12},{"buffer":0,"byteOffset":6168,"byteLength":288,"target":34962,"byteStride":12},{"buffer":0,"byteOffset":6456,"byteLength":192,"target":34962,"byteStride":8},{"buffer":0,"byteOffset":6648,"byteLength":72,"target":34963},{"buffer":0,"byteOffset":6720,"byteLength":288,"target":34962,"byteStride":12},{"buffer":0,"byteOffset":7008,"byteLength":288,"target":34962,"byteStride":12},{"buffer":0,"byteOffset":7296,"byteLength":192,"target":34962,"byteStride":8},{"buffer":0,"byteOffset":7488,"byteLength":72,"target":34963},{"buffer":0,"byteOffset":7560,"byteLength":288,"target":34962,"byteStride":12},{"buffer":0,"byteOffset":7848,"byteLength":288,"target":34962,"byteStride":12},{"buffer":0,"byteOffset":8136,"byteLength":192,"target":34962,"byteStride":8},{"buffer":0,"byteOffset":8328,"byteLength":72,"target":34963},{"buffer":0,"byteOffset":8400,"byteLength":288,"target":34962,"byteStride":12},{"buffer":0,"byteOffset":8688,"byteLength":288,"target":34962,"byteStride":12},{"buffer":0,"byteOffset":8976,"byteLength":192,"target":34962,"byteStride":8},{"buffer":0,"byteOffset":9168,"byteLength":72,"target":34963},{"buffer":0,"byteOffset":9240,"byteLength":288,"target":34962,"byteStride":12},{"buffer":0,"byteOffset":9528,"byteLength":288,"target":34962,"byteStride":12},{"buffer":0,"byteOffset":9816,"byteLength":192,"target":34962,"byteStride":8},{"buffer":0,"byteOffset":10008,"byteLength":72,"target":34963},{"buffer":0,"byteOffset":10080,"byteLength":288,"target":34962,"byteStride":12},{"buffer":0,"byteOffset":10368,"byteLength":288,"target":34962,"byteStride":12},{"buffer":0,"byteOffset":10656,"byteLength":192,"target":34962,"byteStride":8},{"buffer":0,"byteOffset":10848,"byteLength":72,"target":34963},{"buffer":0,"byteOffset":10920,"byteLength":288,"target":34962,"byteStride":12},{"buffer":0,"byteOffset":11208,"byteLength":288,"target":34962,"byteStride":12},{"buffer":0,"byteOffset":11496,"byteLength":192,"target":34962,"byteStride":8},{"buffer":0,"byteOffset":11688,"byteLength":72,"target":34963},{"buffer":0,"byteOffset":11760,"byteLength":288,"target":34962,"byteStride":12},{"buffer":0,"byteOffset":12048,"byteLength":288,"target":34962,"byteStride":12},{"buffer":0,"byteOffset":12336,"byteLength":192,"target":34962,"byteStride":8},{"buffer":0,"byteOffset":12528,"byteLength":72,"target":34963},{"buffer":0,"byteOffset":12600,"byteLength":64},{"buffer":0,"byteOffset":12664,"byteLength":256},{"buffer":0,"byteOffset":12920,"byteLength":64},{"buffer":0,"byteOffset":12984,"byteLength":256},{"buffer":0,"byteOffset":13240,"byteLength":36},{"buffer":0,"byteOffset":13276,"byteLength":144},{"buffer":0,"byteOffset":13420,"byteLength":24},{"buffer":0,"byteOffset":13444,"byteLength":72},{"buffer":0,"byteOffset":13516,"byteLength":36},{"buffer":0,"byteOffset":13552,"byteLength":144},{"buffer":0,"byteOffset":13696,"byteLength":24},{"buffer":0,"byteOffset":13720,"byteLength":72},{"buffer":0,"byteOffset":13792,"byteLength":64},{"buffer":0,"byteOffset":13856,"byteLength":256},{"buffer":0,"byteOffset":14112,"byteLength":64},{"buffer":0,"byteOffset":14176,"byteLength":256},{"buffer":0,"byteOffset":14432,"byteLength":64},{"buffer":0,"byteOffset":14496,"byteLength":256},{"buffer":0,"byteOffset":14752,"byteLength":64},{"buffer":0,"byteOffset":14816,"byteLength":192},{"buffer":0,"byteOffset":15008,"byteLength":64},{"buffer":0,"byteOffset":15072,"byteLength":256},{"buffer":0,"byteOffset":15328,"byteLength":64},{"buffer":0,"byteOffset":15392,"byteLength":256},{"buffer":0,"byteOffset":15648,"byteLength":64},{"buffer":0,"byteOffset":15712,"byteLength":256},{"buffer":0,"byteOffset":15968,"byteLength":12},{"buffer":0,"byteOffset":15980,"byteLength":36},{"buffer":0,"byteOffset":16016,"byteLength":64},{"buffer":0,"byteOffset":16080,"byteLength":256},{"buffer":0,"byteOffset":16336,"byteLength":12},{"buffer":0,"byteOffset":16348,"byteLength":36},{"buffer":0,"byteOffset":16384,"byteLength":64},{"buffer":0,"byteOffset":16448,"byteLength":256},{"buffer":0,"byteOffset":16704,"byteLength":4},{"buffer":0,"byteOffset":16708,"byteLength":16},{"buffer":0,"byteOffset":16724,"byteLength":4},{"buffer":0,"byteOffset":16728,"byteLength":16},{"buffer":0,"byteOffset":16744,"byteLength":4},{"buffer":0,"byteOffset":16748,"byteLength":16}],"buffers":[{"byteLength":16764,"uri":"data:application/octet-stream;base64,"}],"accessors":[{"bufferView":0,"componentType":5126,"count":24,"max":[0.25,2,0.25],"min":[-0.25,1.5,-0.25],"type":"VEC3"},{"bufferView":1,"componentType":5126,"count":24,"max":[1,1,1],"min":[-1,-1,-1],"type":"VEC3"},{"bufferView":2,"componentType":5126,"count":24,"max":[0.499755859375,0.249755859375],"min":[0.000244140625,0.000244140625],"type":"VEC2"},{"bufferView":3,"componentType":5123,"count":36,"max":[23],"min":[0],"type":"SCALAR"},{"bufferView":4,"componentType":5126,"count":24,"max":[0.28125,2.03125,0.28125],"min":[-0.28125,1.46875,-0.28125],"type":"VEC3"},{"bufferView":5,"componentType":5126,"count":24,"max":[1,1,1],"min":[-1,-1,-1],"type":"VEC3"},{"bufferView":6,"componentType":5126,"count":24,"max":[0.999755859375,0.249755859375],"min":[0.500244140625,0.000244140625],"type":"VEC2"},{"bufferView":7,"componentType":5123,"count":36,"max":[23],"min":[0],"type":"SCALAR"},{"bufferView":8,"componentType":5126,"count":24,"max":[0.25,1.5,0.125],"min":[-0.25,0.75,-0.125],"type":"VEC3"},{"bufferView":9,"componentType":5126,"count":24,"max":[1,1,1],"min":[-1,-1,-1],"type":"VEC3"},{"bufferView":10,"componentType":5126,"count":24,"max":[0.624755859375,0.499755859375],"min":[0.250244140625,0.250244140625],"type":"VEC2"},{"bufferView":11,"componentType":5123,"count":36,"max":[23],"min":[0],"type":"SCALAR"},{"bufferView":12,"componentType":5126,"count":24,"max":[0.265625,1.515625,0.140625],"min":[-0.265625,0.734375,-0.140625],"type":"VEC3"},{"bufferView":13,"componentType":5126,"count":24,"max":[1,1,1],"min":[-1,-1,-1],"type":"VEC3"},{"bufferView":14,"componentType":5126,"count":24,"max":[0.624755859375,0.749755859375],"min":[0.250244140625,0.500244140625],"type":"VEC2"},{"bufferView":15,"componentType":5123,"count":36,"max":[23],"min":[0],"type":"SCALAR"},{"bufferView":16,"componentType":5126,"count":24,"max":[0.0625,0.1875,0.0625],"min":[-0.0625,-0.0625,-0.0625],"type":"VEC3"},{"bufferView":17,"componentType":5126,"count":24,"max":[1,1,1],"min":[-1,-1,-1],"type":"VEC3"},{"bufferView":18,"componentType":5126,"count":24,"max":[0.24951171875,0.74951171875],"min":[0.00048828125,0.56298828125],"type":"VEC2"},{"bufferView":19,"componentType":5123,"count":36,"max":[23],"min":[0],"type":"SCALAR"},{"bufferView":20,"componentType":5126,"count":24,"max":[0.0625,0.25,0.25],"min":[-0.0625,0.1875,-0.25],"type":"VEC3"},{"bufferView":21,"componentType":5126,"count":24,"max":[1,1,1],"min":[-1,-1,-1],"type":"VEC3"},{"bufferView":22,"componentType":5126,"count":24,"max":[0.62451171875,0.53076171875],"min":[0.00048828125,0.25048828125],"type":"VEC2"},{"bufferView":23,"componentType":5123,"count":36,"max":[23],"min":[0],"type":"SCALAR"},{"bufferView":24,"componentType":5126,"count":24,"max":[0.0000625000029685907,1.25,0.125],"min":[0,0.25,-0.125],"type":"VEC3"},{"bufferView":25,"componentType":5126,"count":24,"max":[1,1,1],"min":[-1,-1,-1],"type":"VEC3"},{"bufferView":26,"componentType":5126,"count":24,"max":[0.25048828125,0.49951171875],"min":[0.00048828125,-0.12451171875],"type":"VEC2"},{"bufferView":27,"componentType":5123,"count":36,"max":[23],"min":[0],"type":"SCALAR"},{"bufferView":28,"componentType":5126,"count":24,"max":[0.5,1.5,0.125],"min":[0.25,0.75,-0.125],"type":"VEC3"},{"bufferView":29,"componentType":5126,"count":24,"max":[1,1,1],"min":[-1,-1,-1],"type":"VEC3"},{"bufferView":30,"componentType":5126,"count":24,"max":[0.874755859375,0.499755859375],"min":[0.625244140625,0.250244140625],"type":"VEC2"},{"bufferView":31,"componentType":5123,"count":36,"max":[23],"min":[0],"type":"SCALAR"},{"bufferView":32,"componentType":5126,"count":24,"max":[0.515625,1.515625,0.140625],"min":[0.234375,0.734375,-0.140625],"type":"VEC3"},{"bufferView":33,"componentType":5126,"count":24,"max":[1,1,1],"min":[-1,-1,-1],"type":"VEC3"},{"bufferView":34,"componentType":5126,"count":24,"max":[0.874755859375,0.749755859375],"min":[0.625244140625,0.500244140625],"type":"VEC2"},{"bufferView":35,"componentType":5123,"count":36,"max":[23],"min":[0],"type":"SCALAR"},{"bufferView":36,"componentType":5126,"count":24,"max":[-0.25,1.5,0.125],"min":[-0.5,0.75,-0.125],"type":"VEC3"},{"bufferView":37,"componentType":5126,"count":24,"max":[1,1,1],"min":[-1,-1,-1],"type":"VEC3"},{"bufferView":38,"componentType":5126,"count":24,"max":[0.749755859375,0.999755859375],"min":[0.500244140625,0.750244140625],"type":"VEC2"},{"bufferView":39,"componentType":5123,"count":36,"max":[23],"min":[0],"type":"SCALAR"},{"bufferView":40,"componentType":5126,"count":24,"max":[-0.234375,1.515625,0.140625],"min":[-0.515625,0.734375,-0.140625],"type":"VEC3"},{"bufferView":41,"componentType":5126,"count":24,"max":[1,1,1],"min":[-1,-1,-1],"type":"VEC3"},{"bufferView":42,"componentType":5126,"count":24,"max":[0.999755859375,0.999755859375],"min":[0.750244140625,0.750244140625],"type":"VEC2"},{"bufferView":43,"componentType":5123,"count":36,"max":[23],"min":[0],"type":"SCALAR"},{"bufferView":44,"componentType":5126,"count":24,"max":[0.24375000596046448,0.75,0.125],"min":[-0.0062500000931322575,0,-0.125],"type":"VEC3"},{"bufferView":45,"componentType":5126,"count":24,"max":[1,1,1],"min":[-1,-1,-1],"type":"VEC3"},{"bufferView":46,"componentType":5126,"count":24,"max":[0.249755859375,0.499755859375],"min":[0.000244140625,0.250244140625],"type":"VEC2"},{"bufferView":47,"componentType":5123,"count":36,"max":[23],"min":[0],"type":"SCALAR"},{"bufferView":48,"componentType":5126,"count":24,"max":[0.2593750059604645,0.765625,0.140625],"min":[-0.02187499962747097,-0.015625,-0.140625],"type":"VEC3"},{"bufferView":49,"componentType":5126,"count":24,"max":[1,1,1],"min":[-1,-1,-1],"type":"VEC3"},{"bufferView":50,"componentType":5126,"count":24,"max":[0.249755859375,0.749755859375],"min":[0.000244140625,0.500244140625],"type":"VEC2"},{"bufferView":51,"componentType":5123,"count":36,"max":[23],"min":[0],"type":"SCALAR"},{"bufferView":52,"componentType":5126,"count":24,"max":[0.0062500000931322575,0.75,0.125],"min":[-0.24375000596046448,0,-0.125],"type":"VEC3"},{"bufferView":53,"componentType":5126,"count":24,"max":[1,1,1],"min":[-1,-1,-1],"type":"VEC3"},{"bufferView":54,"componentType":5126,"count":24,"max":[0.499755859375,0.999755859375],"min":[0.250244140625,0.750244140625],"type":"VEC2"},{"bufferView":55,"componentType":5123,"count":36,"max":[23],"min":[0],"type":"SCALAR"},{"bufferView":56,"componentType":5126,"count":24,"max":[0.02187499962747097,0.765625,0.140625],"min":[-0.2593750059604645,-0.015625,-0.140625],"type":"VEC3"},{"bufferView":57,"componentType":5126,"count":24,"max":[1,1,1],"min":[-1,-1,-1],"type":"VEC3"},{"bufferView":58,"componentType":5126,"count":24,"max":[0.249755859375,0.999755859375],"min":[0.000244140625,0.750244140625],"type":"VEC2"},{"bufferView":59,"componentType":5123,"count":36,"max":[23],"min":[0],"type":"SCALAR"},{"bufferView":60,"componentType":5126,"count":16,"max":[1],"min":[0],"type":"SCALAR"},{"bufferView":61,"componentType":5126,"count":16,"max":[0.6158711314201355,0.4312376081943512,0.5269544124603271,1],"min":[-0.10243116319179535,-0.04130042716860771,0,0.5401044487953186],"type":"VEC4"},{"bufferView":62,"componentType":5126,"count":16,"max":[1],"min":[0],"type":"SCALAR"},{"bufferView":63,"componentType":5126,"count":16,"max":[0,0,0,1],"min":[0,0,-0.13052618503570557,0.9914448857307434],"type":"VEC4"},{"bufferView":64,"componentType":5126,"count":9,"max":[0.4583333432674408],"min":[0],"type":"SCALAR"},{"bufferView":65,"componentType":5126,"count":9,"max":[0,0,0,1],"min":[-0.08715574443340302,0,0,0.9961947202682495],"type":"VEC4"},{"bufferView":66,"componentType":5126,"count":6,"max":[0.25],"min":[0],"type":"SCALAR"},{"bufferView":67,"componentType":5126,"count":6,"max":[0.11874999850988388,0.75,0.0625],"min":[0.11874999850988388,0.75,0],"type":"VEC3"},{"bufferView":68,"componentType":5126,"count":9,"max":[0.4583333432674408],"min":[0],"type":"SCALAR"},{"bufferView":69,"componentType":5126,"count":9,"max":[0.08715574443340302,0,0,1],"min":[0,0,0,0.9961947202682495],"type":"VEC4"},{"bufferView":70,"componentType":5126,"count":6,"max":[0.25],"min":[0],"type":"SCALAR"},{"bufferView":71,"componentType":5126,"count":6,"max":[-0.11874999850988388,0.75,0],"min":[-0.11874999850988388,0.75,-0.125],"type":"VEC3"},{"bufferView":72,"componentType":5126,"count":16,"max":[1],"min":[0],"type":"SCALAR"},{"bufferView":73,"componentType":5126,"count":16,"max":[0.6125609278678894,0.441765159368515,0.593132495880127,1],"min":[-0.3915601968765259,0,0,0.599618136882782],"type":"VEC4"},{"bufferView":74,"componentType":5126,"count":16,"max":[1],"min":[0],"type":"SCALAR"},{"bufferView":75,"componentType":5126,"count":16,"max":[0.2164396196603775,0,0,1],"min":[0,0,0,0.9762960076332092],"type":"VEC4"},{"bufferView":76,"componentType":5126,"count":16,"max":[1],"min":[0],"type":"SCALAR"},{"bufferView":77,"componentType":5126,"count":16,"max":[0.6133832931518555,0.7882492542266846,0.8915514945983887,1],"min":[-0.3935708701610565,-0.28434547781944275,0,0.26210638880729675],"type":"VEC4"},{"bufferView":78,"componentType":5126,"count":16,"max":[1],"min":[0],"type":"SCALAR"},{"bufferView":79,"componentType":5126,"count":16,"max":[0.33355531096458435,1.4178333282470703,0.045090969651937485],"min":[0.3125,1.2726060152053833,-0.07060781866312027],"type":"VEC3"},{"bufferView":80,"componentType":5126,"count":16,"max":[1],"min":[0],"type":"SCALAR"},{"bufferView":81,"componentType":5126,"count":16,"max":[0,0,0,1],"min":[0,0,-0.08715574443340302,0.9961947202682495],"type":"VEC4"},{"bufferView":82,"componentType":5126,"count":16,"max":[1],"min":[0],"type":"SCALAR"},{"bufferView":83,"componentType":5126,"count":16,"max":[-0.7071067690849304,0,0,0.7071067690849304],"min":[-0.9948217272758484,0,0,0.10163507610559464],"type":"VEC4"},{"bufferView":84,"componentType":5126,"count":16,"max":[1],"min":[0],"type":"SCALAR"},{"bufferView":85,"componentType":5126,"count":16,"max":[0,0,0,1],"min":[-0.08715574443340302,0,0,0.9961947202682495],"type":"VEC4"},{"bufferView":86,"componentType":5126,"count":3,"max":[1],"min":[0],"type":"SCALAR"},{"bufferView":87,"componentType":5126,"count":3,"max":[0.11874999850988388,0.75,0],"min":[0.11874999850988388,0.75,0],"type":"VEC3"},{"bufferView":88,"componentType":5126,"count":16,"max":[1],"min":[0],"type":"SCALAR"},{"bufferView":89,"componentType":5126,"count":16,"max":[0.08715574443340302,0,0,1],"min":[0,0,0,0.9961947202682495],"type":"VEC4"},{"bufferView":90,"componentType":5126,"count":3,"max":[1],"min":[0],"type":"SCALAR"},{"bufferView":91,"componentType":5126,"count":3,"max":[-0.11874999850988388,0.75,0],"min":[-0.11874999850988388,0.75,0],"type":"VEC3"},{"bufferView":92,"componentType":5126,"count":16,"max":[1],"min":[0],"type":"SCALAR"},{"bufferView":93,"componentType":5126,"count":16,"max":[0,1,0,1],"min":[0,-0.9807852506637573,0,-1],"type":"VEC4"},{"bufferView":94,"componentType":5126,"count":1,"max":[0],"min":[0],"type":"SCALAR"},{"bufferView":95,"componentType":5126,"count":1,"max":[0.3322315216064453,0.06889598071575165,-0.3322315216064453,0.8800555467605591],"min":[0.3322315216064453,0.06889598071575165,-0.3322315216064453,0.8800555467605591],"type":"VEC4"},{"bufferView":96,"componentType":5126,"count":1,"max":[0],"min":[0],"type":"SCALAR"},{"bufferView":97,"componentType":5126,"count":1,"max":[0.3322315216064453,-0.06889598071575165,0.3322315216064453,0.8800555467605591],"min":[0.3322315216064453,-0.06889598071575165,0.3322315216064453,0.8800555467605591],"type":"VEC4"},{"bufferView":98,"componentType":5126,"count":1,"max":[0],"min":[0],"type":"SCALAR"},{"bufferView":99,"componentType":5126,"count":1,"max":[-0.7310478687286377,0.052027035504579544,-0.42503175139427185,0.531234622001648],"min":[-0.7310478687286377,0.052027035504579544,-0.42503175139427185,0.531234622001648],"type":"VEC4"}],"materials":[{"pbrMetallicRoughness":{"metallicFactor":0,"roughnessFactor":1,"baseColorTexture":{"index":0}},"alphaMode":"MASK","alphaCutoff":0.05,"doubleSided":true},{"pbrMetallicRoughness":{"metallicFactor":0,"roughnessFactor":1,"baseColorTexture":{"index":1}},"alphaMode":"MASK","alphaCutoff":0.05,"doubleSided":true}],"textures":[{"sampler":0,"source":0,"name":"4f85c9732462888d.png"},{"sampler":1,"source":1,"name":"iron_sword.png"}],"samplers":[{"magFilter":9728,"minFilter":9728,"wrapS":33071,"wrapT":33071},{"magFilter":9728,"minFilter":9728,"wrapS":33071,"wrapT":33071}],"images":[{"mimeType":"image/png","uri":"data:image/png;base64,"},{"mimeType":"image/png","uri":"data:image/png;base64,"}],"meshes":[{"primitives":[{"mode":4,"attributes":{"POSITION":0,"NORMAL":1,"TEXCOORD_0":2},"indices":3,"material":0}]},{"primitives":[{"mode":4,"attributes":{"POSITION":4,"NORMAL":5,"TEXCOORD_0":6},"indices":7,"material":0}]},{"primitives":[{"mode":4,"attributes":{"POSITION":8,"NORMAL":9,"TEXCOORD_0":10},"indices":11,"material":0}]},{"primitives":[{"mode":4,"attributes":{"POSITION":12,"NORMAL":13,"TEXCOORD_0":14},"indices":15,"material":0}]},{"primitives":[{"mode":4,"attributes":{"POSITION":16,"NORMAL":17,"TEXCOORD_0":18},"indices":19,"material":1}]},{"primitives":[{"mode":4,"attributes":{"POSITION":20,"NORMAL":21,"TEXCOORD_0":22},"indices":23,"material":1}]},{"primitives":[{"mode":4,"attributes":{"POSITION":24,"NORMAL":25,"TEXCOORD_0":26},"indices":27,"material":1}]},{"primitives":[{"mode":4,"attributes":{"POSITION":28,"NORMAL":29,"TEXCOORD_0":30},"indices":31,"material":0}]},{"primitives":[{"mode":4,"attributes":{"POSITION":32,"NORMAL":33,"TEXCOORD_0":34},"indices":35,"material":0}]},{"primitives":[{"mode":4,"attributes":{"POSITION":36,"NORMAL":37,"TEXCOORD_0":38},"indices":39,"material":0}]},{"primitives":[{"mode":4,"attributes":{"POSITION":40,"NORMAL":41,"TEXCOORD_0":42},"indices":43,"material":0}]},{"primitives":[{"mode":4,"attributes":{"POSITION":44,"NORMAL":45,"TEXCOORD_0":46},"indices":47,"material":0}]},{"primitives":[{"mode":4,"attributes":{"POSITION":48,"NORMAL":49,"TEXCOORD_0":50},"indices":51,"material":0}]},{"primitives":[{"mode":4,"attributes":{"POSITION":52,"NORMAL":53,"TEXCOORD_0":54},"indices":55,"material":0}]},{"primitives":[{"mode":4,"attributes":{"POSITION":56,"NORMAL":57,"TEXCOORD_0":58},"indices":59,"material":0}]}],"animations":[{"name":"fight","samplers":[{"input":60,"output":61,"interpolation":"LINEAR"},{"input":62,"output":63,"interpolation":"LINEAR"},{"input":64,"output":65,"interpolation":"LINEAR"},{"input":66,"output":67,"interpolation":"LINEAR"},{"input":68,"output":69,"interpolation":"LINEAR"},{"input":70,"output":71,"interpolation":"LINEAR"}],"channels":[{"sampler":0,"target":{"node":12,"path":"rotation"}},{"sampler":1,"target":{"node":15,"path":"rotation"}},{"sampler":2,"target":{"node":18,"path":"rotation"}},{"sampler":3,"target":{"node":18,"path":"translation"}},{"sampler":4,"target":{"node":21,"path":"rotation"}},{"sampler":5,"target":{"node":21,"path":"translation"}}]},{"name":"fight2","samplers":[{"input":72,"output":73,"interpolation":"LINEAR"},{"input":74,"output":75,"interpolation":"LINEAR"}],"channels":[{"sampler":0,"target":{"node":12,"path":"rotation"}},{"sampler":1,"target":{"node":15,"path":"rotation"}}]},{"name":"fight3","samplers":[{"input":76,"output":77,"interpolation":"LINEAR"},{"input":78,"output":79,"interpolation":"LINEAR"},{"input":80,"output":81,"interpolation":"LINEAR"},{"input":82,"output":83,"interpolation":"LINEAR"},{"input":84,"output":85,"interpolation":"LINEAR"},{"input":86,"output":87,"interpolation":"LINEAR"},{"input":88,"output":89,"interpolation":"LINEAR"},{"input":90,"output":91,"interpolation":"LINEAR"}],"channels":[{"sampler":0,"target":{"node":12,"path":"rotation"}},{"sampler":1,"target":{"node":12,"path":"translation"}},{"sampler":2,"target":{"node":15,"path":"rotation"}},{"sampler":3,"target":{"node":9,"path":"rotation"}},{"sampler":4,"target":{"node":18,"path":"rotation"}},{"sampler":5,"target":{"node":18,"path":"translation"}},{"sampler":6,"target":{"node":21,"path":"rotation"}},{"sampler":7,"target":{"node":21,"path":"translation"}}]},{"name":"fight4","samplers":[{"input":92,"output":93,"interpolation":"LINEAR"},{"input":94,"output":95,"interpolation":"LINEAR"},{"input":96,"output":97,"interpolation":"LINEAR"},{"input":98,"output":99,"interpolation":"LINEAR"}],"channels":[{"sampler":0,"target":{"node":22,"path":"rotation"}},{"sampler":1,"target":{"node":12,"path":"rotation"}},{"sampler":2,"target":{"node":15,"path":"rotation"}},{"sampler":3,"target":{"node":9,"path":"rotation"}}]}]}